<svg id="Capa_1" enable-background="new 0 0 512 512" height="512" viewBox="0 0 512 512" width="512" xmlns="http://www.w3.org/2000/svg"><g><path d="m454.954 75.078v-31.044h-31.044c-20.119 0-36.429 16.31-36.429 36.429v1.044c21.272 0 41.668 5.698 59.446 16.372 5.018-6.242 8.027-14.168 8.027-22.801z"/><path d="m207.264 114.239c-10.095-5.479-21.53-8.483-33.335-8.483-4.5 0-9.053.436-13.606 1.337l-25.821-62.337-62.337 25.821 25.821 62.337c-24.59 16.468-35.812 46.308-29.104 74.35h138.382z"/><path d="m473.257 197.646c0-.119.005-.238.005-.357 0-47.376-38.406-85.782-85.782-85.782-15.674 0-30.362 4.211-43.007 11.553z"/><path d="m237.264 0h37.473v207.263h-37.473z"/><path d="m41.348 342.209h429.304l5.328-37.473h-439.96z"/><path d="m45.614 372.209 19.876 139.791h381.02l19.876-139.791z"/><path d="m304.736 207.263h125.267l-125.267-72.549z"/><path d="m0 237.263h512v37.473h-512z"/></g></svg>