<svg id="Capa_1" enable-background="new 0 0 512 512" height="512" viewBox="0 0 512 512" width="512" xmlns="http://www.w3.org/2000/svg"><g><path d="m63.415 243.339v49.615h30v-49.615c18.247-6.252 31.405-23.564 31.405-43.903v-104.69h-92.811v104.689c0 20.34 13.159 37.652 31.406 43.904z"/><path d="m477.943 285.309c0-78.158-56.636-143.081-131.104-155.986 3.825-5.422 6.079-12.031 6.079-19.17 0-18.392-14.909-33.301-33.301-33.301s-33.301 14.909-33.301 33.301c0 7.139 2.254 13.748 6.079 19.17-74.468 12.906-131.104 77.828-131.104 155.986v7.645h316.653v-7.645z"/><path d="m0 322.954h512v112.194h-512z"/></g></svg>