<?xml version="1.0" encoding="iso-8859-1"?>
<!-- Generator: Adobe Illustrator 19.0.0, SVG Export Plug-In . SVG Version: 6.00 Build 0)  -->
<svg version="1.1" id="Capa_1" xmlns="http://www.w3.org/2000/svg" xmlns:xlink="http://www.w3.org/1999/xlink" x="0px" y="0px"
	 viewBox="0 0 512 512" style="enable-background:new 0 0 512 512;" xml:space="preserve">
<g>
	<g>
		<path d="M448,64h-48V16c0-8.832-7.168-16-16-16H96C69.536,0,48,21.536,48,48v400c0,35.296,28.704,64,64,64h336
			c8.832,0,16-7.168,16-16V80C464,71.168,456.832,64,448,64z M352,416H160c-8.832,0-16-7.168-16-16c0-8.832,7.168-16,16-16h192
			c8.832,0,16,7.168,16,16C368,408.832,360.832,416,352,416z M144,192c0-35.904,21.088-64,48-64s48,28.096,48,64
			c0,28.32-13.216,51.584-32,60.192V336c0,8.832-7.168,16-16,16c-8.832,0-16-7.168-16-16v-83.808
			C157.216,243.584,144,220.32,144,192z M368,272c0,8.832-7.168,16-16,16h-48v48c0,8.832-7.168,16-16,16c-8.832,0-16-7.168-16-16
			V144c0-8.832,7.168-16,16-16c44.128,0,80,35.904,80,80V272z M368,64H96c-8.832,0-16-7.168-16-16c0-8.832,7.168-16,16-16h272V64z"
			/>
	</g>
</g>
<g>
</g>
<g>
</g>
<g>
</g>
<g>
</g>
<g>
</g>
<g>
</g>
<g>
</g>
<g>
</g>
<g>
</g>
<g>
</g>
<g>
</g>
<g>
</g>
<g>
</g>
<g>
</g>
<g>
</g>
</svg>
