<svg height="448pt" viewBox="0 0 448 448.00022" width="448pt" xmlns="http://www.w3.org/2000/svg"><path d="m209.761719 402.082031c-14.472657-.015625-27.140625-9.714843-30.929688-23.683593-.128906-.484376-.128906-.964844-.230469-1.453126l-88.121093-47.617187c-2.386719-1.367187-5.089844-2.085937-7.839844-2.078125-1.027344 0-2.054687.09375-3.066406.285156-1.386719.242188-2.734375.679688-4 1.296875-2.878907 1.367188-5.277344 3.578125-6.871094 6.34375-1.394531 2.4375-2.132813 5.191407-2.144531 8-.039063 5.722657 2.996094 11.027344 7.953125 13.886719l145.847656 87.273438c3.820313 2.390624 8.238281 3.660156 12.746094 3.664062h112.71875c3.011719-.003906 5.996093-.574219 8.800781-1.679688l29.375-11.601562v-86.183594l-28.601562-17.125c-3.722657-2.230468-7.984376-3.410156-12.328126-3.410156h-30.664062c-4.882812 0-9.746094.640625-14.460938 1.902344l-92.34375 24.707031c-6.480468 1.796875-11.171874 7.414063-11.785156 14.109375v2.617188c.054688 1 .207032 1.992187.464844 2.960937 1.902344 6.972656 8.25 11.804687 15.480469 11.785156.972656-.082031 5.679687-1.042969 9.328125-1.882812l82.847656-22.167969 4.125 15.457031-83.117188 22.238281c-4.320312 1.160157-8.730468 1.949219-13.183593 2.355469zm0 0"/><path d="m400 320h48v128h-48zm0 0"/><path d="m0 0h48v144h-48zm0 0"/><path d="m91.296875 125.886719c10.917969 7.25 23.609375 11.386719 36.703125 11.96875v-38.65625c-5.910156-2.15625-11.433594-5.257813-16.351562-9.183594l-4.6875-3.800781 10.078124-12.429688 4.640626 3.757813c15.851562 12.671875 38.453124 12.335937 53.921874-.796875l5.597657-4.800782 47.199219 47.199219c6.28125 6.25 16.4375 6.230469 22.691406-.046875 6.25-6.28125 6.230468-16.4375-.050782-22.6875l-56.453124-56.515625 11.308593-11.308593 19.417969 19.414062h66.015625l-31.601563-31.601562c-10.476562-10.535157-24.738281-16.4414068-39.597656-16.398438h-100.578125c-3.722656 0-7.394531.871094-10.726562 2.535156l-17.9375 8.96875c-5.996094 2.988282-12.644531 4.429688-19.34375 4.191406l-7.542969-.269531v104.574219h18.398438zm0 0"/><path d="m144 102.550781v137.449219h304v-176h-206.6875l16 16h134.6875v8c0 17.671875 14.328125 32 32 32h8v64h-8c-17.671875 0-32 14.328125-32 32v8h-192v-8c0-17.671875-14.328125-32-32-32h-8v-64h8c10.140625-.007812 19.675781-4.832031 25.6875-13l-13.648438-13.648438c-10.683593 6.925782-23.34375 10.160157-36.039062 9.199219zm0 0"/><path d="m239.777344 139.753906c-8.46875.019532-16.597656-3.3125-22.609375-9.273437l-12.070313-12.082031c-7.324218 8.992187-17.664062 15.011718-29.097656 16.9375v33.328124c20.128906 3.441407 35.894531 19.207032 39.335938 39.335938h161.328124c3.441407-20.128906 19.207032-35.894531 39.335938-39.335938v-33.328124c-20.128906-3.441407-35.894531-19.207032-39.335938-39.335938h-107.128906c3.824219 9.433594 2.847656 20.136719-2.621094 28.71875 14.671876-15.539062 38.972657-16.796875 55.171876-2.851562 16.203124 13.945312 18.578124 38.160156 5.394531 54.984374-13.179688 16.828126-37.261719 20.316407-54.679688 7.921876-17.414062-12.390626-22.007812-36.285157-10.433593-54.253907-6.027344 5.921875-14.140626 9.238281-22.589844 9.234375zm0 0"/><path d="m320 152c0 13.253906-10.746094 24-24 24s-24-10.746094-24-24 10.746094-24 24-24 24 10.746094 24 24zm0 0"/></svg>