<?xml version="1.0"?>
<svg xmlns="http://www.w3.org/2000/svg" xmlns:xlink="http://www.w3.org/1999/xlink" version="1.1" id="Capa_1" x="0px" y="0px" viewBox="0 0 429.3 429.3" style="enable-background:new 0 0 429.3 429.3;" xml:space="preserve" width="512px" height="512px"><g><g>
	<g>
		<path d="M347.65,418.3L347.65,418.3L347.65,418.3z" data-original="#000000" class="active-path" data-old_color="#000000" fill="#FFFFFF"/>
	</g>
</g><g>
	<g>
		<path d="M336.45,23.3c-1.8,2.1-4.4,3.3-7.2,3.3s-5.5-1.2-7.4-3.3L300.55,0l-21.3,23.2c-0.2,0.2-0.4,0.4-0.6,0.6    c-4,3.7-10.4,3.5-14.1-0.6L243.25,0l-21.3,23.2c-0.2,0.2-0.4,0.4-0.6,0.6c-4,3.7-10.4,3.5-14.1-0.6L185.95,0l-21.3,23.2    c-0.2,0.2-0.4,0.4-0.6,0.6c-4,3.7-10.4,3.5-14.1-0.6L128.65,0l-21.3,23.3c-1.9,2.1-4.6,3.3-7.4,3.3s-5.4-1.2-7.2-3.3L81.65,11    v407.4l11.1-12.4c1.8-2.1,4.4-3.3,7.2-3.3c2.8,0,5.5,1.2,7.4,3.3l21.3,23.3l21.4-23.2c0.2-0.2,0.4-0.4,0.6-0.6    c4-3.7,10.4-3.5,14.1,0.6l21.3,23.2l21.3-23.2c0.2-0.2,0.4-0.4,0.6-0.6c4-3.7,10.4-3.5,14.1,0.6l21.3,23.2l21.3-23.2    c0.2-0.2,0.4-0.4,0.6-0.6c4-3.7,10.4-3.5,14.1,0.6l21.3,23.2l21.3-23.3c1.9-2.1,4.6-3.3,7.4-3.3s5.4,1.2,7.2,3.3l11.1,12.3V10.9    L336.45,23.3z M174.35,130.8h-1.3c-5.5,0-10-4.5-10-10s4.5-10,10-10h5.1c2.9-7.3,7.3-14,12.8-19.6c15.9-15.9,39.7-20.9,60.7-12.8    c5.1,2,7.7,7.8,5.7,12.9c-2,5.1-7.8,7.7-12.9,5.7c-13.6-5.3-29.1-2-39.4,8.3c-1.7,1.6-3.2,3.4-4.5,5.4h45.4c5.5,0,10,4.5,10,10    s-4.5,10-10,10h-51.7c0,2,0.1,4,0.4,6h46.1c5.5,0,10,4.5,10,10s-4.5,10-10,10h-36.3c0.2,0,0.3,0.5,0.5,0.8    c10.3,10.3,25.8,13.6,39.4,8.4c5.1-2,10.9,0.6,12.9,5.7c2,5.1-0.6,10.9-5.7,12.9c-21,8.1-44.8,3-60.7-12.9    c-4.4-4.3-8-9.3-10.6-14.9h-7.3c-5.5,0-10-4.5-10-10s4.5-10,10.2-9.9h1.5C174.45,134.8,174.35,132.8,174.35,130.8z M170.85,258.7    h87.6c5.5,0,10,4.5,10,10s-4.5,10-10,10h-87.6c-5.5,0-10-4.5-10-10S165.35,258.7,170.85,258.7z M300.15,361.7h-171    c-5.5,0-10-4.5-10-10s4.5-10,10-10h171c5.5,0,10,4.5,10,10S305.65,361.7,300.15,361.7z M300.15,319.7h-171c-5.5,0-10-4.5-10-10    s4.5-10,10-10h171c5.5,0,10,4.5,10,10S305.65,319.7,300.15,319.7z" data-original="#000000" class="active-path" data-old_color="#000000" fill="#FFFFFF"/>
	</g>
</g></g> </svg>
